<svg id="visual" viewBox="0 0 960 540" width="960" height="540" xmlns="http://www.w3.org/2000/svg" xmlns:xlink="http://www.w3.org/1999/xlink" version="1.1"><rect x="0" y="0" width="960" height="540" fill="#fff4ea"></rect><defs><linearGradient id="grad1_0" x1="43.8%" y1="100%" x2="100%" y2="0%"><stop offset="14.444444444444446%" stop-color="#ad1152" stop-opacity="1"></stop><stop offset="85.55555555555554%" stop-color="#ad1152" stop-opacity="1"></stop></linearGradient></defs><defs><linearGradient id="grad1_1" x1="43.8%" y1="100%" x2="100%" y2="0%"><stop offset="14.444444444444446%" stop-color="#ad1152" stop-opacity="1"></stop><stop offset="85.55555555555554%" stop-color="#dc917f" stop-opacity="1"></stop></linearGradient></defs><defs><linearGradient id="grad1_2" x1="43.8%" y1="100%" x2="100%" y2="0%"><stop offset="14.444444444444446%" stop-color="#fff4ea" stop-opacity="1"></stop><stop offset="85.55555555555554%" stop-color="#dc917f" stop-opacity="1"></stop></linearGradient></defs><defs><linearGradient id="grad2_0" x1="0%" y1="100%" x2="56.3%" y2="0%"><stop offset="14.444444444444446%" stop-color="#ad1152" stop-opacity="1"></stop><stop offset="85.55555555555554%" stop-color="#ad1152" stop-opacity="1"></stop></linearGradient></defs><defs><linearGradient id="grad2_1" x1="0%" y1="100%" x2="56.3%" y2="0%"><stop offset="14.444444444444446%" stop-color="#dc917f" stop-opacity="1"></stop><stop offset="85.55555555555554%" stop-color="#ad1152" stop-opacity="1"></stop></linearGradient></defs><defs><linearGradient id="grad2_2" x1="0%" y1="100%" x2="56.3%" y2="0%"><stop offset="14.444444444444446%" stop-color="#dc917f" stop-opacity="1"></stop><stop offset="85.55555555555554%" stop-color="#fff4ea" stop-opacity="1"></stop></linearGradient></defs><g transform="translate(960, 540)"><path d="M-486 0C-473.6 -85.6 -461.2 -171.1 -420.9 -243C-380.6 -314.9 -312.3 -373.1 -237.5 -411.4C-162.7 -449.6 -81.3 -467.8 0 -486L0 0Z" fill="#edc4ae"></path><path d="M-324 0C-315.7 -57 -307.5 -114.1 -280.6 -162C-253.7 -209.9 -208.2 -248.8 -158.3 -274.2C-108.5 -299.7 -54.2 -311.9 0 -324L0 0Z" fill="#c85b61"></path><path d="M-162 0C-157.9 -28.5 -153.7 -57 -140.3 -81C-126.9 -105 -104.1 -124.4 -79.2 -137.1C-54.2 -149.9 -27.1 -155.9 0 -162L0 0Z" fill="#ad1152"></path></g><g transform="translate(0, 0)"><path d="M486 0C427.6 58.1 369.2 116.3 336 194C302.8 271.7 294.8 369 243 420.9C191.2 472.8 95.6 479.4 0 486L0 0Z" fill="#edc4ae"></path><path d="M324 0C285.1 38.8 246.1 77.5 224 129.3C201.9 181.1 196.5 246 162 280.6C127.5 315.2 63.7 319.6 0 324L0 0Z" fill="#c85b61"></path><path d="M162 0C142.5 19.4 123.1 38.8 112 64.7C100.9 90.6 98.3 123 81 140.3C63.7 157.6 31.9 159.8 0 162L0 0Z" fill="#ad1152"></path></g></svg>